<svg xmlns="http://www.w3.org/2000/svg" viewBox="0 0 64 64">
  <style>
    .background { fill: #191a1d; }
    .letter { fill: #fffaf2; }

    @media (prefers-color-scheme: light) {
      .background { fill: #fffaf2; }
      .letter { fill: #191a1d; }
    }
  </style>
  <rect class="background" width="64" height="64" rx="14" />
  <path
    class="letter"
    d="M8 18h13.2c7 0 11 3.5 11 9.6 0 4-1.9 6.9-5.4 8.4l6.7 10H24l-5.1-8.1h-3.2V46H8V18Zm12.6 13.7c2.7 0 4.1-1.3 4.1-3.8 0-2.4-1.4-3.7-4.1-3.7h-4.9v7.5h4.9Z"
  />
  <path fill="#f15a24" d="m36.5 15 5.2 2.6L27.5 49l-5.2-2.6L36.5 15Z" />
  <path
    class="letter"
    fill-rule="evenodd"
    d="M48.5 17C57 17 61 23.3 61 32s-4 15-12.5 15S36 40.7 36 32s4-15 12.5-15Zm0 7c-3.5 0-5 2.8-5 8s1.5 8 5 8 5-2.8 5-8-1.5-8-5-8Z"
  />
</svg>
